<?xml version="1.0" encoding="UTF-8"?>
<svg width="260px" height="57px" viewBox="0 0 260 57" version="1.1" xmlns="http://www.w3.org/2000/svg" xmlns:xlink="http://www.w3.org/1999/xlink">
    <!-- Generator: Sketch 58 (84663) - https://sketch.com -->
    <title>Other / Logo / Dark</title>
    <desc>Created with Sketch.</desc>
    <defs>
        <polygon id="path-1" points="0.106849315 1.67259375 32.0387671 1.67259375 32.0387671 49.875 0.106849315 49.875"></polygon>
    </defs>
    <g id="Symbols" stroke="none" stroke-width="1" fill="none" fill-rule="evenodd">
        <g id="Module-/-Header-/-Default" transform="translate(-43.000000, -32.000000)">
            <g id="Other-/-Logo-/-Dark">
                <g transform="translate(43.000000, 32.000000)">
                    <g>
                        <g id="Group">
                            <g id="Group-4" transform="translate(0.000000, 7.125000)">
                                <mask id="mask-2" fill="white">
                                    <use xlink:href="#path-1"></use>
                                </mask>
                                <g id="Clip-2"></g>
                                <polygon id="Fill-1" fill="#00704A" mask="url(#mask-2)" points="0.106849315 8.27746875 32.0387671 8.27746875 32.0387671 1.67259375 0.106849315 1.67259375"></polygon>
                                <polygon id="Fill-3" fill="#00704A" mask="url(#mask-2)" points="0.106849315 49.875 32.0387671 49.875 32.0387671 43.270125 0.106849315 43.270125"></polygon>
                            </g>
                            <polyline id="Fill-5" fill="#00704A" points="22.5915068 37.3456875 26.8583562 49.3352813 5.11986301 49.3352813 9.38493151 37.3456875"></polyline>
                            <polyline id="Fill-6" fill="#00704A" points="22.5915068 28.4875312 26.8583562 16.4979375 5.11986301 16.4979375 9.38493151 28.4875312"></polyline>
                            <path d="M25.4889041,35.5395 L25.4889041,41.5013437 L31.1447945,41.5013437 L31.1447945,24.8252812 L25.5619178,24.8252812 L25.5619178,30.3329062 L6.40383562,30.3329062 L6.40383562,24.8252812 L0.820958904,24.8252812 L0.820958904,41.5013437 L6.47863014,41.5013437 L6.47863014,35.5395 L25.4889041,35.5395 Z M3.98726027,7.146375 L7.68246575,7.146375 L5.32109589,0.77840625 L2.24205479,1.70465625 L3.98726027,7.146375 Z" id="Stroke-7" stroke="#00704A" stroke-width="0.922"></path>
                        </g>
                        <g id="Group-11" stroke="#00704A" stroke-width="0.338">
                            <path d="M44.1679452,10.944 L47.5568493,10.944 L56.0478082,21.8488125 L64.3624658,10.944 L67.7157534,10.944 L67.7157534,28.977375 L63.8371233,28.977375 L63.8371233,17.8303125 C63.8371233,17.4794062 63.8727397,16.850625 63.9778082,15.9083438 C63.5931507,16.7116875 63.2441096,17.3760937 62.9306849,17.7946875 L56.1510959,26.811375 L55.3141096,26.811375 L48.5363014,17.7608437 C48.1160274,17.19975 47.7313699,16.6065938 47.4535616,15.9083438 C47.5230137,16.6422188 47.5568493,17.2371562 47.5568493,17.8303125 L47.5568493,28.977375 L44.1679452,28.977375 L44.1679452,10.944 Z M75.2272603,14.1947813 L91.0890411,14.1947813 L91.0890411,16.815 L78.8619178,16.815 L78.8619178,20.0301563 L85.9887671,20.0301563 L85.9887671,22.5826875 L78.8619178,22.5826875 L78.8619178,26.2164375 L91.2635616,26.2164375 L91.2635616,28.977375 L75.2272603,28.977375 L75.2272603,14.1947813 Z M96.4689041,28.977375 L105.51726,28.977375 C112.01726,28.977375 115.299315,26.5299375 115.299315,21.5335312 C115.299315,16.9557187 112.259452,14.1947813 106.425479,14.1947813 L96.4689041,14.1947813 L96.4689041,28.977375 Z M100.103562,26.2164375 L100.103562,16.850625 L106.461096,16.850625 C109.885616,16.850625 111.596986,18.2845313 111.596986,21.3589688 C111.596986,25.2029063 109.326438,26.2164375 104.749726,26.2164375 L100.103562,26.2164375 Z M120.714795,28.977375 L124.312055,28.977375 L124.312055,14.193 L120.714795,14.193 L120.714795,28.977375 Z M134.129726,16.921875 L134.129726,26.1469687 L143.84411,26.1469687 L143.84411,23.0012813 L147.476986,23.7351563 L147.476986,25.4825625 C147.476986,28.2435 146.53137,28.977375 143.598356,28.977375 L134.375479,28.977375 C131.405068,28.977375 130.532466,28.2096563 130.532466,25.4825625 L130.532466,17.691375 C130.532466,14.9286563 131.440685,14.1947813 134.375479,14.1947813 L143.598356,14.1947813 C146.53137,14.1947813 147.476986,14.8930313 147.476986,17.691375 L147.476986,19.1217187 L143.84411,19.6471875 L143.84411,16.921875 L134.129726,16.921875 Z M150.49726,28.977375 L154.096301,28.977375 L155.946575,25.7265938 L165.730411,25.7265938 L167.582466,28.977375 L171.633836,28.977375 L162.724384,14.1947813 L159.267808,14.1947813 L150.49726,28.977375 Z M157.485205,23.0369063 L160.802877,16.8844687 L164.263014,23.0369063 L157.485205,23.0369063 Z M175.30411,14.1947813 L178.936986,14.1947813 L178.936986,26.2164375 L190.533699,26.2164375 L190.533699,28.977375 L175.30411,28.977375 L175.30411,14.1947813 Z M44.2035616,56.6312813 L48.3261644,56.6312813 L48.3261644,49.6078125 L59.6450685,49.6078125 C62.4053425,49.6078125 63.6982192,48.628125 63.6982192,46.113 L63.6982192,42.0945 C63.6982192,39.579375 62.4053425,38.5996875 59.6450685,38.5996875 L44.2035616,38.5996875 L44.2035616,56.6312813 Z M57.7591781,41.7079688 C59.0520548,41.7079688 59.6450685,41.9537812 59.6450685,43.141875 L59.6450685,45.0638438 C59.6450685,46.2519375 59.0520548,46.4959688 57.7591781,46.4959688 L48.3261644,46.4959688 L48.3261644,41.7079688 L57.7591781,41.7079688 Z M68.8341096,41.8486875 L72.4687671,41.8486875 L72.4687671,47.4756562 L83.7182192,47.4756562 L83.7182192,41.8486875 L87.3154795,41.8486875 L87.3154795,56.6312812 L83.7182192,56.6312812 L83.7182192,50.4129375 L72.4687671,50.4129375 L72.4687671,56.6312812 L68.8341096,56.6312812 L68.8341096,41.8486875 Z M91.6838356,56.6312812 L95.2828767,56.6312812 L97.1331507,53.3805 L106.915205,53.3805 L108.76726,56.6312812 L112.820411,56.6312812 L103.910959,41.8486875 L100.452603,41.8486875 L91.6838356,56.6312812 Z M98.67,50.6908125 L101.989452,44.5419375 L105.447808,50.6908125 L98.67,50.6908125 Z" id="Stroke-9"></path>
                            <path d="M116.488904,56.6312813 L120.052329,56.6312813 L120.052329,51.0381563 L123.441233,51.0381563 L129.624247,56.6312813 L134.795753,56.6312813 L127.773973,51.0381563 L129.800548,51.0381563 C132.176164,51.0381563 133.258904,50.2365937 133.258904,48.2095312 L133.258904,44.7129375 C133.258904,42.6520313 132.176164,41.8486875 129.800548,41.8486875 L116.488904,41.8486875 L116.488904,56.6312813 Z M128.261918,44.4012187 C129.346438,44.4012187 129.903836,44.609625 129.903836,45.5893125 L129.903836,47.3010937 C129.903836,48.279 129.346438,48.4891875 128.261918,48.4891875 L120.052329,48.4891875 L120.052329,44.4012187 L128.261918,44.4012187 Z M139.197945,41.8486875 L142.097123,41.8486875 L149.330822,50.6195625 L156.527123,41.8486875 L159.424521,41.8486875 L159.424521,56.6312813 L156.073014,56.6312813 L156.073014,46.462125 L149.469726,54.8500313 L148.769863,54.8500313 L142.097123,46.7079375 L142.097123,56.6312813 L139.197945,56.6312813 L139.197945,41.8486875 Z M163.75726,56.6312813 L167.358082,56.6312813 L169.210137,53.3805 L178.990411,53.3805 L180.844247,56.6312813 L184.895616,56.6312813 L175.984384,41.8486875 L172.527808,41.8486875 L163.75726,56.6312813 Z M170.746986,50.6908125 L174.064658,44.5419375 L177.523014,50.6908125 L170.746986,50.6908125 Z M191.81411,44.574 L191.81411,53.800875 L201.524932,53.800875 L201.524932,50.6551875 L205.159589,51.3890625 L205.159589,53.1364687 C205.159589,55.8974063 204.215753,56.6312813 201.280959,56.6312813 L192.058082,56.6312813 C189.087671,56.6312813 188.215068,55.8617812 188.215068,53.1364687 L188.215068,45.3435 C188.215068,42.5825625 189.121507,41.8486875 192.058082,41.8486875 L201.280959,41.8486875 C204.215753,41.8486875 205.159589,42.5487187 205.159589,45.3435 L205.159589,46.7774062 L201.524932,47.3010937 L201.524932,44.574 L191.81411,44.574 Z M211.063014,56.6312813 L214.662055,56.6312813 L214.662055,41.8486875 L211.063014,41.8486875 L211.063014,56.6312813 Z M221.231507,41.8486875 L237.093288,41.8486875 L237.093288,44.4706875 L224.864384,44.4706875 L224.864384,47.6840625 L231.991233,47.6840625 L231.991233,50.2365937 L224.864384,50.2365937 L224.864384,53.8703438 L237.266027,53.8703438 L237.266027,56.6312813 L221.231507,56.6312813 L221.231507,41.8486875 Z" id="Stroke-10"></path>
                        </g>
                        <path d="M44.1679452,10.944 L47.5568493,10.944 L56.0478082,21.8488125 L64.3624658,10.944 L67.7157534,10.944 L67.7157534,28.977375 L63.8371233,28.977375 L63.8371233,17.8303125 C63.8371233,17.4794063 63.8727397,16.850625 63.9778082,15.9083438 C63.5931507,16.7116875 63.2441096,17.3760937 62.9306849,17.7946875 L56.1510959,26.811375 L55.3141096,26.811375 L48.5363014,17.7608438 C48.1160274,17.19975 47.7313699,16.6065938 47.4535616,15.9083438 C47.5230137,16.6422188 47.5568493,17.2371563 47.5568493,17.8303125 L47.5568493,28.977375 L44.1679452,28.977375" id="Fill-12" fill="#00704A"></path>
                        <polyline id="Fill-13" fill="#00704A" points="75.2272603 14.1947813 91.0890411 14.1947813 91.0890411 16.815 78.8619178 16.815 78.8619178 20.0301563 85.9887671 20.0301563 85.9887671 22.5826875 78.8619178 22.5826875 78.8619178 26.2164375 91.2635616 26.2164375 91.2635616 28.977375 75.2272603 28.977375"></polyline>
                        <path d="M96.4689041,28.977375 L105.51726,28.977375 C112.01726,28.977375 115.299315,26.5299375 115.299315,21.5335312 C115.299315,16.9557187 112.259452,14.1947813 106.425479,14.1947813 L96.4689041,14.1947813 L96.4689041,28.977375 Z M100.103562,26.2164375 L100.103562,16.850625 L106.461096,16.850625 C109.885616,16.850625 111.596986,18.2845313 111.596986,21.3589688 C111.596986,25.2029063 109.326438,26.2164375 104.749726,26.2164375 L100.103562,26.2164375 Z" id="Fill-14" fill="#00704A"></path>
                        <polygon id="Fill-15" fill="#00704A" points="120.714795 28.9791563 124.312055 28.9791563 124.312055 14.1947813 120.714795 14.1947813"></polygon>
                        <path d="M134.129726,16.921875 L134.129726,26.1469687 L143.84411,26.1469687 L143.84411,23.0012813 L147.476986,23.7351563 L147.476986,25.4825625 C147.476986,28.2435 146.53137,28.977375 143.598356,28.977375 L134.375479,28.977375 C131.405068,28.977375 130.532466,28.2096563 130.532466,25.4825625 L130.532466,17.691375 C130.532466,14.9286562 131.440685,14.1947813 134.375479,14.1947813 L143.598356,14.1947813 C146.53137,14.1947813 147.476986,14.8930313 147.476986,17.691375 L147.476986,19.1217187 L143.84411,19.6471875 L143.84411,16.921875" id="Fill-16" fill="#00704A"></path>
                        <path d="M150.49726,28.977375 L154.096301,28.977375 L155.946575,25.7265938 L165.730411,25.7265938 L167.582466,28.977375 L171.633836,28.977375 L162.724384,14.1947813 L159.267808,14.1947813 L150.49726,28.977375 Z M157.485205,23.0369063 L160.802877,16.8844687 L164.263014,23.0369063 L157.485205,23.0369063 Z" id="Fill-17" fill="#00704A"></path>
                        <polyline id="Fill-18" fill="#00704A" points="175.30411 14.1947813 178.936986 14.1947813 178.936986 26.2164375 190.533699 26.2164375 190.533699 28.977375 175.30411 28.977375"></polyline>
                        <path d="M44.2035616,56.6312813 L48.3261644,56.6312813 L48.3261644,49.6078125 L59.6450685,49.6078125 C62.4053425,49.6078125 63.6982192,48.628125 63.6982192,46.113 L63.6982192,42.0945 C63.6982192,39.579375 62.4053425,38.5996875 59.6450685,38.5996875 L44.2035616,38.5996875 L44.2035616,56.6312813 Z M57.7591781,41.7079687 C59.0520548,41.7079687 59.6450685,41.9537812 59.6450685,43.141875 L59.6450685,45.0638438 C59.6450685,46.2519375 59.0520548,46.4959688 57.7591781,46.4959688 L48.3261644,46.4959688 L48.3261644,41.7079687 L57.7591781,41.7079687 Z" id="Fill-19" fill="#00704A"></path>
                        <polyline id="Fill-20" fill="#00704A" points="68.8341096 41.8486875 72.4687671 41.8486875 72.4687671 47.4756563 83.7182192 47.4756563 83.7182192 41.8486875 87.3154795 41.8486875 87.3154795 56.6312813 83.7182192 56.6312813 83.7182192 50.4129375 72.4687671 50.4129375 72.4687671 56.6312813 68.8341096 56.6312813"></polyline>
                        <path d="M91.6838356,56.6312813 L95.2828767,56.6312813 L97.1331507,53.3805 L106.915205,53.3805 L108.76726,56.6312813 L112.820411,56.6312813 L103.910959,41.8486875 L100.452603,41.8486875 L91.6838356,56.6312813 Z M98.67,50.6908125 L101.989452,44.5419375 L105.447808,50.6908125 L98.67,50.6908125 Z" id="Fill-21" fill="#00704A"></path>
                        <path d="M116.488904,56.6312813 L120.052329,56.6312813 L120.052329,51.0381563 L123.441233,51.0381563 L129.624247,56.6312813 L134.795753,56.6312813 L127.773973,51.0381563 L129.800548,51.0381563 C132.176164,51.0381563 133.258904,50.2365937 133.258904,48.2095312 L133.258904,44.7129375 C133.258904,42.6520313 132.176164,41.8486875 129.800548,41.8486875 L116.488904,41.8486875 L116.488904,56.6312813 Z M128.261918,44.4012187 C129.346438,44.4012187 129.903836,44.609625 129.903836,45.5893125 L129.903836,47.3010937 C129.903836,48.279 129.346438,48.4891875 128.261918,48.4891875 L120.052329,48.4891875 L120.052329,44.4012187 L128.261918,44.4012187 Z" id="Fill-22" fill="#00704A"></path>
                        <polyline id="Fill-23" fill="#00704A" points="139.197945 41.8486875 142.097123 41.8486875 149.330822 50.6195625 156.527123 41.8486875 159.424521 41.8486875 159.424521 56.6312813 156.073014 56.6312813 156.073014 46.462125 149.469726 54.8500313 148.769863 54.8500313 142.097123 46.7079375 142.097123 56.6312813 139.197945 56.6312813"></polyline>
                        <path d="M163.75726,56.6312813 L167.358082,56.6312813 L169.210137,53.3805 L178.990411,53.3805 L180.844247,56.6312813 L184.895616,56.6312813 L175.984384,41.8486875 L172.527808,41.8486875 L163.75726,56.6312813 Z M170.746986,50.6908125 L174.064658,44.5419375 L177.523014,50.6908125 L170.746986,50.6908125 Z" id="Fill-24" fill="#00704A"></path>
                        <path d="M191.81411,44.574 L191.81411,53.800875 L201.524932,53.800875 L201.524932,50.6551875 L205.159589,51.3890625 L205.159589,53.1364687 C205.159589,55.8974063 204.215753,56.6312813 201.280959,56.6312813 L192.058082,56.6312813 C189.087671,56.6312813 188.215068,55.8617812 188.215068,53.1364687 L188.215068,45.3435 C188.215068,42.5825625 189.121507,41.8486875 192.058082,41.8486875 L201.280959,41.8486875 C204.215753,41.8486875 205.159589,42.5487187 205.159589,45.3435 L205.159589,46.7774062 L201.524932,47.3010937 L201.524932,44.574" id="Fill-25" fill="#00704A"></path>
                        <polygon id="Fill-26" fill="#00704A" points="211.063014 56.6312813 214.662055 56.6312813 214.662055 41.8486875 211.063014 41.8486875"></polygon>
                        <polyline id="Fill-27" fill="#00704A" points="221.231507 41.8486875 237.093288 41.8486875 237.093288 44.4706875 224.864384 44.4706875 224.864384 47.6840625 231.991233 47.6840625 231.991233 50.2365937 224.864384 50.2365937 224.864384 53.8703438 237.266027 53.8703438 237.266027 56.6312813 221.231507 56.6312813"></polyline>
                        <path d="M245.965342,44.5045312 L245.965342,47.6145937 L255.572877,47.6145937 C258.507671,47.6145937 259.41589,48.3128437 259.41589,51.1094062 L259.41589,53.1364687 C259.41589,55.8974063 258.507671,56.6312813 255.572877,56.6312813 L245.965342,56.6312813 C243.030548,56.6312813 242.088493,55.8974063 242.088493,53.1364687 L242.088493,52.717875 L245.301096,52.1229375 L245.301096,53.8703438 L256.167671,53.8703438 L256.167671,50.480625 L246.595753,50.480625 C243.694795,50.480625 242.717123,49.782375 242.717123,46.9858125 L242.717123,45.3435 C242.717123,42.5487187 243.694795,41.8486875 246.595753,41.8486875 L255.36274,41.8486875 C258.090959,41.8486875 259.24137,42.47925 259.24137,45.0638437 L259.24137,45.41475 L256.132055,46.077375 L256.132055,44.5045312" id="Fill-28" fill="#00704A"></path>
                        <path d="M245.965342,44.5045312 L245.965342,47.6145937 L255.572877,47.6145937 C258.507671,47.6145937 259.41589,48.3128437 259.41589,51.1094062 L259.41589,53.1364687 C259.41589,55.8974063 258.507671,56.6312813 255.572877,56.6312813 L245.965342,56.6312813 C243.030548,56.6312813 242.088493,55.8974063 242.088493,53.1364687 L242.088493,52.717875 L245.301096,52.1229375 L245.301096,53.8703438 L256.167671,53.8703438 L256.167671,50.480625 L246.595753,50.480625 C243.694795,50.480625 242.717123,49.782375 242.717123,46.9858125 L242.717123,45.3435 C242.717123,42.5487187 243.694795,41.8486875 246.595753,41.8486875 L255.36274,41.8486875 C258.090959,41.8486875 259.24137,42.47925 259.24137,45.0638437 L259.24137,45.41475 L256.132055,46.077375 L256.132055,44.5045312 L245.965342,44.5045312 Z" id="Stroke-29" stroke="#00704A" stroke-width="0.338"></path>
                    </g>
                </g>
            </g>
        </g>
    </g>
</svg>